<svg aria-label="A chart." style="overflow: hidden;" height="300"
                    width="450">
                    <defs id="defs"></defs>
                         <path fill="darkgreen" stroke-width="1" stroke="darkgreen" d="M150.62179106,121.90088818 L151.24358212,63.80177636 A90.00000000,60.00000000,0,0,1,232.64770556,98.21211971 M232.64770556,98.21211971 L150.62179106,121.90088818"></path><path fill="darkgreen" stroke-width="1" stroke="darkgreen" d="M150.62179106,121.90088818 L232.64770556,98.21211971 A90.00000000,60.00000000,0,0,1,220.68036775,161.97409211 M220.68036775,161.97409211 L150.62179106,121.90088818"></path><path fill="darkgreen" stroke-width="1" stroke="darkgreen" d="M150.62179106,121.90088818 L220.68036775,161.97409211 A90.00000000,60.00000000,0,0,1,129.06824212,181.95198147 M129.06824212,181.95198147 L150.62179106,121.90088818"></path><path fill="darkgreen" stroke-width="1" stroke="darkgreen" d="M150.62179106,121.90088818 L129.06824212,181.95198147 A90.00000000,60.00000000,0,0,1,62.89148527,135.23092004 M62.89148527,135.23092004 L150.62179106,121.90088818"></path><path fill="darkgreen" stroke-width="1" stroke="darkgreen" d="M150.62179106,121.90088818 L62.89148527,135.23092004 A90.00000000,60.00000000,0,0,1,98.05559469,75.40050001 M98.05559469,75.40050001 L150.62179106,121.90088818"></path><path fill="darkred" stroke-width="1" stroke="darkred" d="M149.37820894,118.09911182 L95.56843046,67.79694728 A90.00000000,60.00000000,0,0,1,105.14947611,63.71146497 M105.14947611,63.71146497 L149.37820894,118.09911182"></path><path fill="darkred" stroke-width="1" stroke="darkred" d="M149.37820894,118.09911182 L105.14947611,63.71146497 A90.00000000,60.00000000,0,0,1,115.42689533,60.46416094 M115.42689533,60.46416094 L149.37820894,118.09911182"></path><path fill="darkred" stroke-width="1" stroke="darkred" d="M149.37820894,118.09911182 L115.42689533,60.46416094 A90.00000000,60.00000000,0,0,1,126.23656464,58.10689244 M126.23656464,58.10689244 L149.37820894,118.09911182"></path><path fill="darkred" stroke-width="1" stroke="darkred" d="M149.37820894,118.09911182 L126.23656464,58.10689244 A90.00000000,60.00000000,0,0,1,137.40586088,56.67730348 M137.40586088,56.67730348 L149.37820894,118.09911182"></path><path fill="darkred" stroke-width="1" stroke="darkred" d="M149.37820894,118.09911182 L137.40586088,56.67730348 A90.00000000,60.00000000,0,0,1,148.75641788,56.19822364 M148.75641788,56.19822364 L149.37820894,118.09911182"></path><path fill="darkgreen" stroke-width="1" stroke="darkgreen" d="M150.62179106,121.90088818 L151.24358212,63.80177636 L151.24358212,43.80177636 L150.62179106,101.90088818 L150.62179106,121.90088818 "></path><path fill="darkred" stroke-width="1" stroke="darkred" d="M149.37820894,118.09911182 L95.56843046,67.79694728 L95.56843046,47.79694728 L149.37820894,98.09911182 L149.37820894,118.09911182 "></path><path fill="darkgreen" stroke-width="1" stroke="darkgreen" d="M150.62179106,121.90088818 L98.05559469,75.40050001 L98.05559469,55.40050001 L150.62179106,101.90088818 L150.62179106,121.90088818 "></path><path fill="darkred" stroke-width="1" stroke="darkred" d="M149.37820894,118.09911182 L148.75641788,56.19822364 L148.75641788,36.19822364 L149.37820894,98.09911182 L149.37820894,118.09911182 "></path><path fill="darkgray" stroke-width="1" stroke="darkgray" d="M150.00000000,118.00000000 L150.00000000,56.00000000 L150.00000000,36.00000000 L150.00000000,98.00000000 L150.00000000,118.00000000 "></path><path fill="goldenrod" stroke-width="1" stroke="goldenrod" d="M150.00000000,118.00000000 L150.00000000,56.00000000 L150.00000000,36.00000000 L150.00000000,98.00000000 L150.00000000,118.00000000 "></path><path fill="green" stroke-width="1" stroke="green" d="M150.62179106,101.90088818 L151.24358212,43.80177636 A90.00000000,60.00000000,0,0,1,232.64770556,78.21211971 M232.64770556,78.21211971 L150.62179106,101.90088818"></path><path fill="green" stroke-width="1" stroke="green" d="M150.62179106,101.90088818 L232.64770556,78.21211971 A90.00000000,60.00000000,0,0,1,220.68036775,141.97409211 M220.68036775,141.97409211 L150.62179106,101.90088818"></path><path fill="green" stroke-width="1" stroke="green" d="M150.62179106,101.90088818 L220.68036775,141.97409211 A90.00000000,60.00000000,0,0,1,129.06824212,161.95198147 M129.06824212,161.95198147 L150.62179106,101.90088818"></path><path fill="green" stroke-width="1" stroke="green" d="M150.62179106,101.90088818 L129.06824212,161.95198147 A90.00000000,60.00000000,0,0,1,62.89148527,115.23092004 M62.89148527,115.23092004 L150.62179106,101.90088818"></path><path fill="green" stroke-width="1" stroke="green" d="M150.62179106,101.90088818 L62.89148527,115.23092004 A90.00000000,60.00000000,0,0,1,98.05559469,55.40050001 M98.05559469,55.40050001 L150.62179106,101.90088818"></path><path fill="red" stroke-width="1" stroke="red" d="M149.37820894,98.09911182 L95.56843046,47.79694728 A90.00000000,60.00000000,0,0,1,105.14947611,43.71146497 M105.14947611,43.71146497 L149.37820894,98.09911182"></path><path fill="red" stroke-width="1" stroke="red" d="M149.37820894,98.09911182 L105.14947611,43.71146497 A90.00000000,60.00000000,0,0,1,115.42689533,40.46416094 M115.42689533,40.46416094 L149.37820894,98.09911182"></path><path fill="red" stroke-width="1" stroke="red" d="M149.37820894,98.09911182 L115.42689533,40.46416094 A90.00000000,60.00000000,0,0,1,126.23656464,38.10689244 M126.23656464,38.10689244 L149.37820894,98.09911182"></path><path fill="red" stroke-width="1" stroke="red" d="M149.37820894,98.09911182 L126.23656464,38.10689244 A90.00000000,60.00000000,0,0,1,137.40586088,36.67730348 M137.40586088,36.67730348 L149.37820894,98.09911182"></path><path fill="red" stroke-width="1" stroke="red" d="M149.37820894,98.09911182 L137.40586088,36.67730348 A90.00000000,60.00000000,0,0,1,148.75641788,36.19822364 M148.75641788,36.19822364 L149.37820894,98.09911182"></path><text x="280" y="67" font-weight = "bold" font-size = "14">90% (143) Passed</text><circle cx="270" cy="62" r="5" stroke="darkgreen" stroke-width="1" fill="green" /><text x="280" y="97" font-weight = "bold" font-size = "14">10% (16) Failed</text><circle cx="270" cy="92" r="5" stroke="darkred" stroke-width="1" fill="red" /><text x="280" y="127" font-weight = "bold" font-size = "14">0% (0) Undefined</text><circle cx="270" cy="122" r="5" stroke="darkgray" stroke-width="1" fill="silver" /><text x="280" y="157" font-weight = "bold" font-size = "14">0% (0) Known</text><circle cx="270" cy="152" r="5" stroke="goldenrod" stroke-width="1" fill="gold" />
                    </svg>