<svg aria-label="A chart." style="overflow: hidden;" height="300"
                    width="450">
                    <defs id="defs"></defs>
                         <path fill="darkgreen" stroke-width="1" stroke="darkgreen" d="M150.51763809,121.93185165 L151.03527618,63.86370331 A90.00000000,60.00000000,0,0,1,233.25436737,99.45950472 M233.25436737,99.45950472 L150.51763809,121.93185165"></path><path fill="darkgreen" stroke-width="1" stroke="darkgreen" d="M150.51763809,121.93185165 L233.25436737,99.45950472 A90.00000000,60.00000000,0,0,1,217.91831047,164.01153969 M217.91831047,164.01153969 L150.51763809,121.93185165"></path><path fill="darkgreen" stroke-width="1" stroke="darkgreen" d="M150.51763809,121.93185165 L217.91831047,164.01153969 A90.00000000,60.00000000,0,0,1,123.22374669,180.92709428 M123.22374669,180.92709428 L150.51763809,121.93185165"></path><path fill="darkgreen" stroke-width="1" stroke="darkgreen" d="M150.51763809,121.93185165 L123.22374669,180.92709428 A90.00000000,60.00000000,0,0,1,61.52830560,130.13541110 M61.52830560,130.13541110 L150.51763809,121.93185165"></path><path fill="darkgreen" stroke-width="1" stroke="darkgreen" d="M150.51763809,121.93185165 L61.52830560,130.13541110 A90.00000000,60.00000000,0,0,1,106.03527618,71.90217908 M106.03527618,71.90217908 L150.51763809,121.93185165"></path><path fill="darkred" stroke-width="1" stroke="darkred" d="M149.48236191,118.06814835 L103.96472382,64.17477247 A90.00000000,60.00000000,0,0,1,112.35842594,61.32356924 M112.35842594,61.32356924 L149.48236191,118.06814835"></path><path fill="darkred" stroke-width="1" stroke="darkred" d="M149.48236191,118.06814835 L112.35842594,61.32356924 A90.00000000,60.00000000,0,0,1,121.15319433,59.07290572 M121.15319433,59.07290572 L149.48236191,118.06814835"></path><path fill="darkred" stroke-width="1" stroke="darkred" d="M149.48236191,118.06814835 L121.15319433,59.07290572 A90.00000000,60.00000000,0,0,1,130.25267165,57.44744065 M130.25267165,57.44744065 L149.48236191,118.06814835"></path><path fill="darkred" stroke-width="1" stroke="darkred" d="M149.48236191,118.06814835 L130.25267165,57.44744065 A90.00000000,60.00000000,0,0,1,139.55716213,56.46498297 M139.55716213,56.46498297 L149.48236191,118.06814835"></path><path fill="darkred" stroke-width="1" stroke="darkred" d="M149.48236191,118.06814835 L139.55716213,56.46498297 A90.00000000,60.00000000,0,0,1,148.96472382,56.13629669 M148.96472382,56.13629669 L149.48236191,118.06814835"></path><path fill="darkgreen" stroke-width="1" stroke="darkgreen" d="M150.51763809,121.93185165 L151.03527618,63.86370331 L151.03527618,43.86370331 L150.51763809,101.93185165 L150.51763809,121.93185165 "></path><path fill="darkred" stroke-width="1" stroke="darkred" d="M149.48236191,118.06814835 L103.96472382,64.17477247 L103.96472382,44.17477247 L149.48236191,98.06814835 L149.48236191,118.06814835 "></path><path fill="darkgreen" stroke-width="1" stroke="darkgreen" d="M150.51763809,121.93185165 L106.03527618,71.90217908 L106.03527618,51.90217908 L150.51763809,101.93185165 L150.51763809,121.93185165 "></path><path fill="darkred" stroke-width="1" stroke="darkred" d="M149.48236191,118.06814835 L148.96472382,56.13629669 L148.96472382,36.13629669 L149.48236191,98.06814835 L149.48236191,118.06814835 "></path><path fill="darkgray" stroke-width="1" stroke="darkgray" d="M150.00000000,118.00000000 L150.00000000,56.00000000 L150.00000000,36.00000000 L150.00000000,98.00000000 L150.00000000,118.00000000 "></path><path fill="goldenrod" stroke-width="1" stroke="goldenrod" d="M150.00000000,118.00000000 L150.00000000,56.00000000 L150.00000000,36.00000000 L150.00000000,98.00000000 L150.00000000,118.00000000 "></path><path fill="green" stroke-width="1" stroke="green" d="M150.51763809,101.93185165 L151.03527618,43.86370331 A90.00000000,60.00000000,0,0,1,233.25436737,79.45950472 M233.25436737,79.45950472 L150.51763809,101.93185165"></path><path fill="green" stroke-width="1" stroke="green" d="M150.51763809,101.93185165 L233.25436737,79.45950472 A90.00000000,60.00000000,0,0,1,217.91831047,144.01153969 M217.91831047,144.01153969 L150.51763809,101.93185165"></path><path fill="green" stroke-width="1" stroke="green" d="M150.51763809,101.93185165 L217.91831047,144.01153969 A90.00000000,60.00000000,0,0,1,123.22374669,160.92709428 M123.22374669,160.92709428 L150.51763809,101.93185165"></path><path fill="green" stroke-width="1" stroke="green" d="M150.51763809,101.93185165 L123.22374669,160.92709428 A90.00000000,60.00000000,0,0,1,61.52830560,110.13541110 M61.52830560,110.13541110 L150.51763809,101.93185165"></path><path fill="green" stroke-width="1" stroke="green" d="M150.51763809,101.93185165 L61.52830560,110.13541110 A90.00000000,60.00000000,0,0,1,106.03527618,51.90217908 M106.03527618,51.90217908 L150.51763809,101.93185165"></path><path fill="red" stroke-width="1" stroke="red" d="M149.48236191,98.06814835 L103.96472382,44.17477247 A90.00000000,60.00000000,0,0,1,112.35842594,41.32356924 M112.35842594,41.32356924 L149.48236191,98.06814835"></path><path fill="red" stroke-width="1" stroke="red" d="M149.48236191,98.06814835 L112.35842594,41.32356924 A90.00000000,60.00000000,0,0,1,121.15319433,39.07290572 M121.15319433,39.07290572 L149.48236191,98.06814835"></path><path fill="red" stroke-width="1" stroke="red" d="M149.48236191,98.06814835 L121.15319433,39.07290572 A90.00000000,60.00000000,0,0,1,130.25267165,37.44744065 M130.25267165,37.44744065 L149.48236191,98.06814835"></path><path fill="red" stroke-width="1" stroke="red" d="M149.48236191,98.06814835 L130.25267165,37.44744065 A90.00000000,60.00000000,0,0,1,139.55716213,36.46498297 M139.55716213,36.46498297 L149.48236191,98.06814835"></path><path fill="red" stroke-width="1" stroke="red" d="M149.48236191,98.06814835 L139.55716213,36.46498297 A90.00000000,60.00000000,0,0,1,148.96472382,36.13629669 M148.96472382,36.13629669 L149.48236191,98.06814835"></path><text x="280" y="67" font-weight = "bold" font-size = "14">92% (11) Passed</text><circle cx="270" cy="62" r="5" stroke="darkgreen" stroke-width="1" fill="green" /><text x="280" y="97" font-weight = "bold" font-size = "14">8% (1) Failed</text><circle cx="270" cy="92" r="5" stroke="darkred" stroke-width="1" fill="red" /><text x="280" y="127" font-weight = "bold" font-size = "14">0% (0) Undefined</text><circle cx="270" cy="122" r="5" stroke="darkgray" stroke-width="1" fill="silver" /><text x="280" y="157" font-weight = "bold" font-size = "14">0% (0) Known</text><circle cx="270" cy="152" r="5" stroke="goldenrod" stroke-width="1" fill="gold" />
                    </svg>