<svg aria-label="A chart." style="overflow: hidden;" height="300"
                    width="450">
                    <defs id="defs"></defs>
                         <path fill="darkgreen" stroke-width="1" stroke="darkgreen" d="M151.01706224,121.72208722 L152.03412447,63.44417445 A90.00000000,60.00000000,0,0,1,229.79797671,93.23907344 M229.79797671,93.23907344 L151.01706224,121.72208722"></path><path fill="darkgreen" stroke-width="1" stroke="darkgreen" d="M151.01706224,121.72208722 L229.79797671,93.23907344 A90.00000000,60.00000000,0,0,1,230.32962485,153.03257022 M230.32962485,153.03257022 L151.01706224,121.72208722"></path><path fill="darkgreen" stroke-width="1" stroke="darkgreen" d="M151.01706224,121.72208722 L230.32962485,153.03257022 A90.00000000,60.00000000,0,0,1,153.10105548,183.43995822 M153.10105548,183.43995822 L151.01706224,121.72208722"></path><path fill="darkgreen" stroke-width="1" stroke="darkgreen" d="M151.01706224,121.72208722 L153.10105548,183.43995822 A90.00000000,60.00000000,0,0,1,74.81284939,154.26173563 M74.81284939,154.26173563 L151.01706224,121.72208722"></path><path fill="darkgreen" stroke-width="1" stroke="darkgreen" d="M151.01706224,121.72208722 L74.81284939,154.26173563 A90.00000000,60.00000000,0,0,1,73.21797968,94.47664228 M73.21797968,94.47664228 L151.01706224,121.72208722"></path><path fill="darkred" stroke-width="1" stroke="darkred" d="M148.98293776,118.27791278 L69.14973073,87.58829339 A90.00000000,60.00000000,0,0,1,80.13932563,77.11777777 M80.13932563,77.11777777 L148.98293776,118.27791278"></path><path fill="darkred" stroke-width="1" stroke="darkred" d="M148.98293776,118.27791278 L80.13932563,77.11777777 A90.00000000,60.00000000,0,0,1,94.20575486,68.43630110 M94.20575486,68.43630110 L148.98293776,118.27791278"></path><path fill="darkred" stroke-width="1" stroke="darkred" d="M148.98293776,118.27791278 L94.20575486,68.43630110 A90.00000000,60.00000000,0,0,1,110.71091915,61.93768357 M110.71091915,61.93768357 L148.98293776,118.27791278"></path><path fill="darkred" stroke-width="1" stroke="darkred" d="M148.98293776,118.27791278 L110.71091915,61.93768357 A90.00000000,60.00000000,0,0,1,128.90609021,57.91672376 M128.90609021,57.91672376 L148.98293776,118.27791278"></path><path fill="darkred" stroke-width="1" stroke="darkred" d="M148.98293776,118.27791278 L128.90609021,57.91672376 A90.00000000,60.00000000,0,0,1,147.96587553,56.55582555 M147.96587553,56.55582555 L148.98293776,118.27791278"></path><path fill="darkgreen" stroke-width="1" stroke="darkgreen" d="M151.01706224,121.72208722 L152.03412447,63.44417445 L152.03412447,43.44417445 L151.01706224,101.72208722 L151.01706224,121.72208722 "></path><path fill="darkred" stroke-width="1" stroke="darkred" d="M148.98293776,118.27791278 L69.14973073,87.58829339 L69.14973073,67.58829339 L148.98293776,98.27791278 L148.98293776,118.27791278 "></path><path fill="darkgreen" stroke-width="1" stroke="darkgreen" d="M151.01706224,121.72208722 L73.21797968,94.47664228 L73.21797968,74.47664228 L151.01706224,101.72208722 L151.01706224,121.72208722 "></path><path fill="darkred" stroke-width="1" stroke="darkred" d="M148.98293776,118.27791278 L147.96587553,56.55582555 L147.96587553,36.55582555 L148.98293776,98.27791278 L148.98293776,118.27791278 "></path><path fill="darkgray" stroke-width="1" stroke="darkgray" d="M150.00000000,118.00000000 L150.00000000,56.00000000 L150.00000000,36.00000000 L150.00000000,98.00000000 L150.00000000,118.00000000 "></path><path fill="darkred" stroke-width="1" stroke="darkred" d="M150.00000000,118.00000000 L150.00000000,56.00000000 L150.00000000,36.00000000 L150.00000000,98.00000000 L150.00000000,118.00000000 "></path><path fill="green" stroke-width="1" stroke="green" d="M151.01706224,101.72208722 L152.03412447,43.44417445 A90.00000000,60.00000000,0,0,1,229.79797671,73.23907344 M229.79797671,73.23907344 L151.01706224,101.72208722"></path><path fill="green" stroke-width="1" stroke="green" d="M151.01706224,101.72208722 L229.79797671,73.23907344 A90.00000000,60.00000000,0,0,1,230.32962485,133.03257022 M230.32962485,133.03257022 L151.01706224,101.72208722"></path><path fill="green" stroke-width="1" stroke="green" d="M151.01706224,101.72208722 L230.32962485,133.03257022 A90.00000000,60.00000000,0,0,1,153.10105548,163.43995822 M153.10105548,163.43995822 L151.01706224,101.72208722"></path><path fill="green" stroke-width="1" stroke="green" d="M151.01706224,101.72208722 L153.10105548,163.43995822 A90.00000000,60.00000000,0,0,1,74.81284939,134.26173563 M74.81284939,134.26173563 L151.01706224,101.72208722"></path><path fill="green" stroke-width="1" stroke="green" d="M151.01706224,101.72208722 L74.81284939,134.26173563 A90.00000000,60.00000000,0,0,1,73.21797968,74.47664228 M73.21797968,74.47664228 L151.01706224,101.72208722"></path><path fill="red" stroke-width="1" stroke="red" d="M148.98293776,98.27791278 L69.14973073,67.58829339 A90.00000000,60.00000000,0,0,1,80.13932563,57.11777777 M80.13932563,57.11777777 L148.98293776,98.27791278"></path><path fill="red" stroke-width="1" stroke="red" d="M148.98293776,98.27791278 L80.13932563,57.11777777 A90.00000000,60.00000000,0,0,1,94.20575486,48.43630110 M94.20575486,48.43630110 L148.98293776,98.27791278"></path><path fill="red" stroke-width="1" stroke="red" d="M148.98293776,98.27791278 L94.20575486,48.43630110 A90.00000000,60.00000000,0,0,1,110.71091915,41.93768357 M110.71091915,41.93768357 L148.98293776,98.27791278"></path><path fill="red" stroke-width="1" stroke="red" d="M148.98293776,98.27791278 L110.71091915,41.93768357 A90.00000000,60.00000000,0,0,1,128.90609021,37.91672376 M128.90609021,37.91672376 L148.98293776,98.27791278"></path><path fill="red" stroke-width="1" stroke="red" d="M148.98293776,98.27791278 L128.90609021,37.91672376 A90.00000000,60.00000000,0,0,1,147.96587553,36.55582555 M147.96587553,36.55582555 L148.98293776,98.27791278"></path><text x="280" y="67" font-weight = "bold" font-size = "14">83% (132) Passed</text><circle cx="270" cy="62" r="5" stroke="darkgreen" stroke-width="1" fill="green" /><text x="280" y="97" font-weight = "bold" font-size = "14">17% (27) Failed</text><circle cx="270" cy="92" r="5" stroke="darkred" stroke-width="1" fill="red" /><text x="280" y="127" font-weight = "bold" font-size = "14">0% (0) Undefined</text><circle cx="270" cy="122" r="5" stroke="darkgray" stroke-width="1" fill="silver" /><text x="280" y="157" font-weight = "bold" font-size = "14">0% (0) Known</text><circle cx="270" cy="152" r="5" stroke="darkred" stroke-width="1" fill="goldenrod" />
                    </svg>