<svg aria-label="A chart." style="overflow: hidden;" height="300"
                    width="450">
                    <defs id="defs"></defs>
                         <path fill="darkgreen" stroke-width="1" stroke="darkgreen" d="M150.35792308,121.96771214 L150.71584616,63.93542428 A90.00000000,60.00000000,0,0,1,234.08940307,101.33896430 M234.08940307,101.33896430 L150.35792308,121.96771214"></path><path fill="darkgreen" stroke-width="1" stroke="darkgreen" d="M150.35792308,121.96771214 L234.08940307,101.33896430 A90.00000000,60.00000000,0,0,1,213.51408758,166.91542415 M213.51408758,166.91542415 L150.35792308,121.96771214"></path><path fill="darkgreen" stroke-width="1" stroke="darkgreen" d="M150.35792308,121.96771214 L213.51408758,166.91542415 A90.00000000,60.00000000,0,0,1,114.64288756,178.90507917 M114.64288756,178.90507917 L150.35792308,121.96771214"></path><path fill="darkgreen" stroke-width="1" stroke="darkgreen" d="M150.35792308,121.96771214 L114.64288756,178.90507917 A90.00000000,60.00000000,0,0,1,60.74689923,122.35941131 M60.74689923,122.35941131 L150.35792308,121.96771214"></path><path fill="darkgreen" stroke-width="1" stroke="darkgreen" d="M150.35792308,121.96771214 L60.74689923,122.35941131 A90.00000000,60.00000000,0,0,1,119.02281446,67.77869226 M119.02281446,67.77869226 L150.35792308,121.96771214"></path><path fill="darkred" stroke-width="1" stroke="darkred" d="M149.38744455,118.09611560 L117.08185739,60.03549917 A90.00000000,60.00000000,0,0,1,118.72463942,59.63554382 M118.72463942,59.63554382 L149.38744455,118.09611560"></path><path fill="darkred" stroke-width="1" stroke="darkred" d="M149.38744455,118.09611560 L118.72463942,59.63554382 A90.00000000,60.00000000,0,0,1,120.37876877,59.25694493 M120.37876877,59.25694493 L149.38744455,118.09611560"></path><path fill="darkred" stroke-width="1" stroke="darkred" d="M149.38744455,118.09611560 L120.37876877,59.25694493 A90.00000000,60.00000000,0,0,1,122.04362082,58.89984544 M122.04362082,58.89984544 L149.38744455,118.09611560"></path><path fill="darkred" stroke-width="1" stroke="darkred" d="M149.38744455,118.09611560 L122.04362082,58.89984544 A90.00000000,60.00000000,0,0,1,123.71856690,58.56438022 M123.71856690,58.56438022 L149.38744455,118.09611560"></path><path fill="darkred" stroke-width="1" stroke="darkred" d="M149.38744455,118.09611560 L123.71856690,58.56438022 A90.00000000,60.00000000,0,0,1,125.40297453,58.25067593 M125.40297453,58.25067593 L149.38744455,118.09611560"></path><path fill="darkgray" stroke-width="1" stroke="darkgray" d="M149.73805568,118.01722791 L126.10419681,58.09290055 A90.00000000,60.00000000,0,0,1,130.70070443,57.35459330 M130.70070443,57.35459330 L149.73805568,118.01722791"></path><path fill="darkgray" stroke-width="1" stroke="darkgray" d="M149.73805568,118.01722791 L130.70070443,57.35459330 A90.00000000,60.00000000,0,0,1,135.34902836,56.77823054 M135.34902836,56.77823054 L149.73805568,118.01722791"></path><path fill="darkgray" stroke-width="1" stroke="darkgray" d="M149.73805568,118.01722791 L135.34902836,56.77823054 A90.00000000,60.00000000,0,0,1,140.03634015,56.36540290 M140.03634015,56.36540290 L149.73805568,118.01722791"></path><path fill="darkgray" stroke-width="1" stroke="darkgray" d="M149.73805568,118.01722791 L140.03634015,56.36540290 A90.00000000,60.00000000,0,0,1,144.74970380,56.11724971 M144.74970380,56.11724971 L149.73805568,118.01722791"></path><path fill="darkgray" stroke-width="1" stroke="darkgray" d="M149.73805568,118.01722791 L144.74970380,56.11724971 A90.00000000,60.00000000,0,0,1,149.47611137,56.03445581 M149.47611137,56.03445581 L149.73805568,118.01722791"></path><path fill="darkgreen" stroke-width="1" stroke="darkgreen" d="M150.35792308,121.96771214 L150.71584616,63.93542428 L150.71584616,43.93542428 L150.35792308,101.96771214 L150.35792308,121.96771214 "></path><path fill="darkred" stroke-width="1" stroke="darkred" d="M149.38744455,118.09611560 L117.08185739,60.03549917 L117.08185739,40.03549917 L149.38744455,98.09611560 L149.38744455,118.09611560 "></path><path fill="darkgray" stroke-width="1" stroke="darkgray" d="M149.73805568,118.01722791 L126.10419681,58.09290055 L126.10419681,38.09290055 L149.73805568,98.01722791 L149.73805568,118.01722791 "></path><path fill="darkgreen" stroke-width="1" stroke="darkgreen" d="M150.35792308,121.96771214 L119.02281446,67.77869226 L119.02281446,47.77869226 L150.35792308,101.96771214 L150.35792308,121.96771214 "></path><path fill="darkred" stroke-width="1" stroke="darkred" d="M149.38744455,118.09611560 L125.40297453,58.25067593 L125.40297453,38.25067593 L149.38744455,98.09611560 L149.38744455,118.09611560 "></path><path fill="darkgray" stroke-width="1" stroke="darkgray" d="M149.73805568,118.01722791 L149.47611137,56.03445581 L149.47611137,36.03445581 L149.73805568,98.01722791 L149.73805568,118.01722791 "></path><path fill="darkred" stroke-width="1" stroke="darkred" d="M150.00000000,118.00000000 L150.00000000,56.00000000 L150.00000000,36.00000000 L150.00000000,98.00000000 L150.00000000,118.00000000 "></path><path fill="green" stroke-width="1" stroke="green" d="M150.35792308,101.96771214 L150.71584616,43.93542428 A90.00000000,60.00000000,0,0,1,234.08940307,81.33896430 M234.08940307,81.33896430 L150.35792308,101.96771214"></path><path fill="green" stroke-width="1" stroke="green" d="M150.35792308,101.96771214 L234.08940307,81.33896430 A90.00000000,60.00000000,0,0,1,213.51408758,146.91542415 M213.51408758,146.91542415 L150.35792308,101.96771214"></path><path fill="green" stroke-width="1" stroke="green" d="M150.35792308,101.96771214 L213.51408758,146.91542415 A90.00000000,60.00000000,0,0,1,114.64288756,158.90507917 M114.64288756,158.90507917 L150.35792308,101.96771214"></path><path fill="green" stroke-width="1" stroke="green" d="M150.35792308,101.96771214 L114.64288756,158.90507917 A90.00000000,60.00000000,0,0,1,60.74689923,102.35941131 M60.74689923,102.35941131 L150.35792308,101.96771214"></path><path fill="green" stroke-width="1" stroke="green" d="M150.35792308,101.96771214 L60.74689923,102.35941131 A90.00000000,60.00000000,0,0,1,119.02281446,47.77869226 M119.02281446,47.77869226 L150.35792308,101.96771214"></path><path fill="red" stroke-width="1" stroke="red" d="M149.38744455,98.09611560 L117.08185739,40.03549917 A90.00000000,60.00000000,0,0,1,118.72463942,39.63554382 M118.72463942,39.63554382 L149.38744455,98.09611560"></path><path fill="red" stroke-width="1" stroke="red" d="M149.38744455,98.09611560 L118.72463942,39.63554382 A90.00000000,60.00000000,0,0,1,120.37876877,39.25694493 M120.37876877,39.25694493 L149.38744455,98.09611560"></path><path fill="red" stroke-width="1" stroke="red" d="M149.38744455,98.09611560 L120.37876877,39.25694493 A90.00000000,60.00000000,0,0,1,122.04362082,38.89984544 M122.04362082,38.89984544 L149.38744455,98.09611560"></path><path fill="red" stroke-width="1" stroke="red" d="M149.38744455,98.09611560 L122.04362082,38.89984544 A90.00000000,60.00000000,0,0,1,123.71856690,38.56438022 M123.71856690,38.56438022 L149.38744455,98.09611560"></path><path fill="red" stroke-width="1" stroke="red" d="M149.38744455,98.09611560 L123.71856690,38.56438022 A90.00000000,60.00000000,0,0,1,125.40297453,38.25067593 M125.40297453,38.25067593 L149.38744455,98.09611560"></path><path fill="silver" stroke-width="1" stroke="silver" d="M149.73805568,98.01722791 L126.10419681,38.09290055 A90.00000000,60.00000000,0,0,1,130.70070443,37.35459330 M130.70070443,37.35459330 L149.73805568,98.01722791"></path><path fill="silver" stroke-width="1" stroke="silver" d="M149.73805568,98.01722791 L130.70070443,37.35459330 A90.00000000,60.00000000,0,0,1,135.34902836,36.77823054 M135.34902836,36.77823054 L149.73805568,98.01722791"></path><path fill="silver" stroke-width="1" stroke="silver" d="M149.73805568,98.01722791 L135.34902836,36.77823054 A90.00000000,60.00000000,0,0,1,140.03634015,36.36540290 M140.03634015,36.36540290 L149.73805568,98.01722791"></path><path fill="silver" stroke-width="1" stroke="silver" d="M149.73805568,98.01722791 L140.03634015,36.36540290 A90.00000000,60.00000000,0,0,1,144.74970380,36.11724971 M144.74970380,36.11724971 L149.73805568,98.01722791"></path><path fill="silver" stroke-width="1" stroke="silver" d="M149.73805568,98.01722791 L144.74970380,36.11724971 A90.00000000,60.00000000,0,0,1,149.47611137,36.03445581 M149.47611137,36.03445581 L149.73805568,98.01722791"></path><text x="280" y="67" font-weight = "bold" font-size = "14">94% (1646) Passed</text><circle cx="270" cy="62" r="5" stroke="darkgreen" stroke-width="1" fill="green" /><text x="280" y="97" font-weight = "bold" font-size = "14">2% (27) Failed</text><circle cx="270" cy="92" r="5" stroke="darkred" stroke-width="1" fill="red" /><text x="280" y="127" font-weight = "bold" font-size = "14">4% (73) Undefined</text><circle cx="270" cy="122" r="5" stroke="darkgray" stroke-width="1" fill="silver" /><text x="280" y="157" font-weight = "bold" font-size = "14">0% (0) Known</text><circle cx="270" cy="152" r="5" stroke="darkred" stroke-width="1" fill="goldenrod" />
                    </svg>