<svg aria-label="A chart." style="overflow: hidden;" height="300"
                    width="450">
                    <defs id="defs"></defs>
                         <path fill="darkgreen" stroke-width="1" stroke="darkgreen" d="M150.17251895,121.99254541 L150.34503791,63.98509082 A90.00000000,60.00000000,0,0,1,234.92844550,103.48417311 M234.92844550,103.48417311 L150.17251895,121.99254541"></path><path fill="darkgreen" stroke-width="1" stroke="darkgreen" d="M150.17251895,121.99254541 L234.92844550,103.48417311 A90.00000000,60.00000000,0,0,1,208.14628719,169.97550326 M208.14628719,169.97550326 L150.17251895,121.99254541"></path><path fill="darkgreen" stroke-width="1" stroke="darkgreen" d="M150.17251895,121.99254541 L208.14628719,169.97550326 A90.00000000,60.00000000,0,0,1,105.26091882,175.91419722 M105.26091882,175.91419722 L150.17251895,121.99254541"></path><path fill="darkgreen" stroke-width="1" stroke="darkgreen" d="M150.17251895,121.99254541 L105.26091882,175.91419722 A90.00000000,60.00000000,0,0,1,61.73492811,113.48115628 M61.73492811,113.48115628 L150.17251895,121.99254541"></path><path fill="darkgreen" stroke-width="1" stroke="darkgreen" d="M150.17251895,121.99254541 L61.73492811,113.48115628 A90.00000000,60.00000000,0,0,1,134.87620470,64.87797450 M134.87620470,64.87797450 L150.17251895,121.99254541"></path><path fill="darkred" stroke-width="1" stroke="darkred" d="M149.71310379,118.02068432 L133.95737437,56.93425232 A90.00000000,60.00000000,0,0,1,134.97935604,56.81941895 M134.97935604,56.81941895 L149.71310379,118.02068432"></path><path fill="darkred" stroke-width="1" stroke="darkred" d="M149.71310379,118.02068432 L134.97935604,56.81941895 A90.00000000,60.00000000,0,0,1,136.00325346,56.71243883 M136.00325346,56.71243883 L149.71310379,118.02068432"></path><path fill="darkred" stroke-width="1" stroke="darkred" d="M149.71310379,118.02068432 L136.00325346,56.71243883 A90.00000000,60.00000000,0,0,1,137.02893087,56.61332614 M137.02893087,56.61332614 L149.71310379,118.02068432"></path><path fill="darkred" stroke-width="1" stroke="darkred" d="M149.71310379,118.02068432 L137.02893087,56.61332614 A90.00000000,60.00000000,0,0,1,138.05625223,56.52209402 M138.05625223,56.52209402 L149.71310379,118.02068432"></path><path fill="darkred" stroke-width="1" stroke="darkred" d="M149.71310379,118.02068432 L138.05625223,56.52209402 A90.00000000,60.00000000,0,0,1,139.08508134,56.43875457 M139.08508134,56.43875457 L149.71310379,118.02068432"></path><path fill="darkgray" stroke-width="1" stroke="darkgray" d="M149.88490787,118.00331430 L139.42868950,56.40401452 A90.00000000,60.00000000,0,0,1,141.49032501,56.26105680 M141.49032501,56.26105680 L149.88490787,118.00331430"></path><path fill="darkgray" stroke-width="1" stroke="darkgray" d="M149.88490787,118.00331430 L141.49032501,56.26105680 A90.00000000,60.00000000,0,0,1,143.55635205,56.14978876 M143.55635205,56.14978876 L149.88490787,118.00331430"></path><path fill="darkgray" stroke-width="1" stroke="darkgray" d="M149.88490787,118.00331430 L143.55635205,56.14978876 A90.00000000,60.00000000,0,0,1,145.62567477,56.07026940 M145.62567477,56.07026940 L149.88490787,118.00331430"></path><path fill="darkgray" stroke-width="1" stroke="darkgray" d="M149.88490787,118.00331430 L145.62567477,56.07026940 A90.00000000,60.00000000,0,0,1,147.69719559,56.02254090 M147.69719559,56.02254090 L149.88490787,118.00331430"></path><path fill="darkgray" stroke-width="1" stroke="darkgray" d="M149.88490787,118.00331430 L147.69719559,56.02254090 A90.00000000,60.00000000,0,0,1,149.76981575,56.00662859 M149.76981575,56.00662859 L149.88490787,118.00331430"></path><path fill="darkgreen" stroke-width="1" stroke="darkgreen" d="M150.17251895,121.99254541 L150.34503791,63.98509082 L150.34503791,43.98509082 L150.17251895,101.99254541 L150.17251895,121.99254541 "></path><path fill="darkred" stroke-width="1" stroke="darkred" d="M149.71310379,118.02068432 L133.95737437,56.93425232 L133.95737437,36.93425232 L149.71310379,98.02068432 L149.71310379,118.02068432 "></path><path fill="darkgray" stroke-width="1" stroke="darkgray" d="M149.88490787,118.00331430 L139.42868950,56.40401452 L139.42868950,36.40401452 L149.88490787,98.00331430 L149.88490787,118.00331430 "></path><path fill="darkgreen" stroke-width="1" stroke="darkgreen" d="M150.17251895,121.99254541 L134.87620470,64.87797450 L134.87620470,44.87797450 L150.17251895,101.99254541 L150.17251895,121.99254541 "></path><path fill="darkred" stroke-width="1" stroke="darkred" d="M149.71310379,118.02068432 L139.08508134,56.43875457 L139.08508134,36.43875457 L149.71310379,98.02068432 L149.71310379,118.02068432 "></path><path fill="darkgray" stroke-width="1" stroke="darkgray" d="M149.88490787,118.00331430 L149.76981575,56.00662859 L149.76981575,36.00662859 L149.88490787,98.00331430 L149.88490787,118.00331430 "></path><path fill="darkred" stroke-width="1" stroke="darkred" d="M150.00000000,118.00000000 L150.00000000,56.00000000 L150.00000000,36.00000000 L150.00000000,98.00000000 L150.00000000,118.00000000 "></path><path fill="green" stroke-width="1" stroke="green" d="M150.17251895,101.99254541 L150.34503791,43.98509082 A90.00000000,60.00000000,0,0,1,234.92844550,83.48417311 M234.92844550,83.48417311 L150.17251895,101.99254541"></path><path fill="green" stroke-width="1" stroke="green" d="M150.17251895,101.99254541 L234.92844550,83.48417311 A90.00000000,60.00000000,0,0,1,208.14628719,149.97550326 M208.14628719,149.97550326 L150.17251895,101.99254541"></path><path fill="green" stroke-width="1" stroke="green" d="M150.17251895,101.99254541 L208.14628719,149.97550326 A90.00000000,60.00000000,0,0,1,105.26091882,155.91419722 M105.26091882,155.91419722 L150.17251895,101.99254541"></path><path fill="green" stroke-width="1" stroke="green" d="M150.17251895,101.99254541 L105.26091882,155.91419722 A90.00000000,60.00000000,0,0,1,61.73492811,93.48115628 M61.73492811,93.48115628 L150.17251895,101.99254541"></path><path fill="green" stroke-width="1" stroke="green" d="M150.17251895,101.99254541 L61.73492811,93.48115628 A90.00000000,60.00000000,0,0,1,134.87620470,44.87797450 M134.87620470,44.87797450 L150.17251895,101.99254541"></path><path fill="red" stroke-width="1" stroke="red" d="M149.71310379,98.02068432 L133.95737437,36.93425232 A90.00000000,60.00000000,0,0,1,134.97935604,36.81941895 M134.97935604,36.81941895 L149.71310379,98.02068432"></path><path fill="red" stroke-width="1" stroke="red" d="M149.71310379,98.02068432 L134.97935604,36.81941895 A90.00000000,60.00000000,0,0,1,136.00325346,36.71243883 M136.00325346,36.71243883 L149.71310379,98.02068432"></path><path fill="red" stroke-width="1" stroke="red" d="M149.71310379,98.02068432 L136.00325346,36.71243883 A90.00000000,60.00000000,0,0,1,137.02893087,36.61332614 M137.02893087,36.61332614 L149.71310379,98.02068432"></path><path fill="red" stroke-width="1" stroke="red" d="M149.71310379,98.02068432 L137.02893087,36.61332614 A90.00000000,60.00000000,0,0,1,138.05625223,36.52209402 M138.05625223,36.52209402 L149.71310379,98.02068432"></path><path fill="red" stroke-width="1" stroke="red" d="M149.71310379,98.02068432 L138.05625223,36.52209402 A90.00000000,60.00000000,0,0,1,139.08508134,36.43875457 M139.08508134,36.43875457 L149.71310379,98.02068432"></path><path fill="silver" stroke-width="1" stroke="silver" d="M149.88490787,98.00331430 L139.42868950,36.40401452 A90.00000000,60.00000000,0,0,1,141.49032501,36.26105680 M141.49032501,36.26105680 L149.88490787,98.00331430"></path><path fill="silver" stroke-width="1" stroke="silver" d="M149.88490787,98.00331430 L141.49032501,36.26105680 A90.00000000,60.00000000,0,0,1,143.55635205,36.14978876 M143.55635205,36.14978876 L149.88490787,98.00331430"></path><path fill="silver" stroke-width="1" stroke="silver" d="M149.88490787,98.00331430 L143.55635205,36.14978876 A90.00000000,60.00000000,0,0,1,145.62567477,36.07026940 M145.62567477,36.07026940 L149.88490787,98.00331430"></path><path fill="silver" stroke-width="1" stroke="silver" d="M149.88490787,98.00331430 L145.62567477,36.07026940 A90.00000000,60.00000000,0,0,1,147.69719559,36.02254090 M147.69719559,36.02254090 L149.88490787,98.00331430"></path><path fill="silver" stroke-width="1" stroke="silver" d="M149.88490787,98.00331430 L147.69719559,36.02254090 A90.00000000,60.00000000,0,0,1,149.76981575,36.00662859 M149.76981575,36.00662859 L149.88490787,98.00331430"></path><text x="280" y="67" font-weight = "bold" font-size = "14">97% (1698) Passed</text><circle cx="270" cy="62" r="5" stroke="darkgreen" stroke-width="1" fill="green" /><text x="280" y="97" font-weight = "bold" font-size = "14">1% (16) Failed</text><circle cx="270" cy="92" r="5" stroke="darkred" stroke-width="1" fill="red" /><text x="280" y="127" font-weight = "bold" font-size = "14">2% (32) Undefined</text><circle cx="270" cy="122" r="5" stroke="darkgray" stroke-width="1" fill="silver" /><text x="280" y="157" font-weight = "bold" font-size = "14">0% (0) Known</text><circle cx="270" cy="152" r="5" stroke="darkred" stroke-width="1" fill="goldenrod" />
                    </svg>