<svg aria-label="A chart." style="overflow: hidden;" height="300"
                    width="450">
                    <defs id="defs"></defs>
                         <path fill="darkgreen" stroke-width="1" stroke="darkgreen" d="M150.61803399,121.90211303 L151.23606798,63.80422607 A90.00000000,60.00000000,0,0,1,232.67050270,98.25746857 M232.67050270,98.25746857 L150.61803399,121.90211303"></path><path fill="darkgreen" stroke-width="1" stroke="darkgreen" d="M150.61803399,121.90211303 L232.67050270,98.25746857 A90.00000000,60.00000000,0,0,1,220.58225983,162.04966545 M220.58225983,162.04966545 L150.61803399,121.90211303"></path><path fill="darkgreen" stroke-width="1" stroke="darkgreen" d="M150.61803399,121.90211303 L220.58225983,162.04966545 A90.00000000,60.00000000,0,0,1,128.85397813,181.91921573 M128.85397813,181.91921573 L150.61803399,121.90211303"></path><path fill="darkgreen" stroke-width="1" stroke="darkgreen" d="M150.61803399,121.90211303 L128.85397813,181.91921573 A90.00000000,60.00000000,0,0,1,62.83021541,135.04710494 M62.83021541,135.04710494 L150.61803399,121.90211303"></path><path fill="darkgreen" stroke-width="1" stroke="darkgreen" d="M150.61803399,121.90211303 L62.83021541,135.04710494 A90.00000000,60.00000000,0,0,1,98.33539527,75.26320640 M98.33539527,75.26320640 L150.61803399,121.90211303"></path><path fill="darkred" stroke-width="1" stroke="darkred" d="M149.38196601,118.09788697 L95.86325932,67.65475427 A90.00000000,60.00000000,0,0,1,105.40610135,63.61737313 M105.40610135,63.61737313 L149.38196601,118.09788697"></path><path fill="darkred" stroke-width="1" stroke="darkred" d="M149.38196601,118.09788697 L105.40610135,63.61737313 A90.00000000,60.00000000,0,0,1,115.63272228,60.40918478 M115.63272228,60.40918478 L149.38196601,118.09788697"></path><path fill="darkred" stroke-width="1" stroke="darkred" d="M149.38196601,118.09788697 L115.63272228,60.40918478 A90.00000000,60.00000000,0,0,1,126.38184218,58.08078427 M126.38184218,58.08078427 L149.38196601,118.09788697"></path><path fill="darkred" stroke-width="1" stroke="darkred" d="M149.38196601,118.09788697 L126.38184218,58.08078427 A90.00000000,60.00000000,0,0,1,137.48394100,56.66889186 M137.48394100,56.66889186 L149.38196601,118.09788697"></path><path fill="darkred" stroke-width="1" stroke="darkred" d="M149.38196601,118.09788697 L137.48394100,56.66889186 A90.00000000,60.00000000,0,0,1,148.76393202,56.19577393 M148.76393202,56.19577393 L149.38196601,118.09788697"></path><path fill="darkgreen" stroke-width="1" stroke="darkgreen" d="M150.61803399,121.90211303 L151.23606798,63.80422607 L151.23606798,43.80422607 L150.61803399,101.90211303 L150.61803399,121.90211303 "></path><path fill="darkred" stroke-width="1" stroke="darkred" d="M149.38196601,118.09788697 L95.86325932,67.65475427 L95.86325932,47.65475427 L149.38196601,98.09788697 L149.38196601,118.09788697 "></path><path fill="darkgreen" stroke-width="1" stroke="darkgreen" d="M150.61803399,121.90211303 L98.33539527,75.26320640 L98.33539527,55.26320640 L150.61803399,101.90211303 L150.61803399,121.90211303 "></path><path fill="darkred" stroke-width="1" stroke="darkred" d="M149.38196601,118.09788697 L148.76393202,56.19577393 L148.76393202,36.19577393 L149.38196601,98.09788697 L149.38196601,118.09788697 "></path><path fill="darkgray" stroke-width="1" stroke="darkgray" d="M150.00000000,118.00000000 L150.00000000,56.00000000 L150.00000000,36.00000000 L150.00000000,98.00000000 L150.00000000,118.00000000 "></path><path fill="goldenrod" stroke-width="1" stroke="goldenrod" d="M150.00000000,118.00000000 L150.00000000,56.00000000 L150.00000000,36.00000000 L150.00000000,98.00000000 L150.00000000,118.00000000 "></path><path fill="green" stroke-width="1" stroke="green" d="M150.61803399,101.90211303 L151.23606798,43.80422607 A90.00000000,60.00000000,0,0,1,232.67050270,78.25746857 M232.67050270,78.25746857 L150.61803399,101.90211303"></path><path fill="green" stroke-width="1" stroke="green" d="M150.61803399,101.90211303 L232.67050270,78.25746857 A90.00000000,60.00000000,0,0,1,220.58225983,142.04966545 M220.58225983,142.04966545 L150.61803399,101.90211303"></path><path fill="green" stroke-width="1" stroke="green" d="M150.61803399,101.90211303 L220.58225983,142.04966545 A90.00000000,60.00000000,0,0,1,128.85397813,161.91921573 M128.85397813,161.91921573 L150.61803399,101.90211303"></path><path fill="green" stroke-width="1" stroke="green" d="M150.61803399,101.90211303 L128.85397813,161.91921573 A90.00000000,60.00000000,0,0,1,62.83021541,115.04710494 M62.83021541,115.04710494 L150.61803399,101.90211303"></path><path fill="green" stroke-width="1" stroke="green" d="M150.61803399,101.90211303 L62.83021541,115.04710494 A90.00000000,60.00000000,0,0,1,98.33539527,55.26320640 M98.33539527,55.26320640 L150.61803399,101.90211303"></path><path fill="red" stroke-width="1" stroke="red" d="M149.38196601,98.09788697 L95.86325932,47.65475427 A90.00000000,60.00000000,0,0,1,105.40610135,43.61737313 M105.40610135,43.61737313 L149.38196601,98.09788697"></path><path fill="red" stroke-width="1" stroke="red" d="M149.38196601,98.09788697 L105.40610135,43.61737313 A90.00000000,60.00000000,0,0,1,115.63272228,40.40918478 M115.63272228,40.40918478 L149.38196601,98.09788697"></path><path fill="red" stroke-width="1" stroke="red" d="M149.38196601,98.09788697 L115.63272228,40.40918478 A90.00000000,60.00000000,0,0,1,126.38184218,38.08078427 M126.38184218,38.08078427 L149.38196601,98.09788697"></path><path fill="red" stroke-width="1" stroke="red" d="M149.38196601,98.09788697 L126.38184218,38.08078427 A90.00000000,60.00000000,0,0,1,137.48394100,36.66889186 M137.48394100,36.66889186 L149.38196601,98.09788697"></path><path fill="red" stroke-width="1" stroke="red" d="M149.38196601,98.09788697 L137.48394100,36.66889186 A90.00000000,60.00000000,0,0,1,148.76393202,36.19577393 M148.76393202,36.19577393 L149.38196601,98.09788697"></path><text x="280" y="67" font-weight = "bold" font-size = "14">90% (9) Passed</text><circle cx="270" cy="62" r="5" stroke="darkgreen" stroke-width="1" fill="green" /><text x="280" y="97" font-weight = "bold" font-size = "14">10% (1) Failed</text><circle cx="270" cy="92" r="5" stroke="darkred" stroke-width="1" fill="red" /><text x="280" y="127" font-weight = "bold" font-size = "14">0% (0) Undefined</text><circle cx="270" cy="122" r="5" stroke="darkgray" stroke-width="1" fill="silver" /><text x="280" y="157" font-weight = "bold" font-size = "14">0% (0) Known</text><circle cx="270" cy="152" r="5" stroke="goldenrod" stroke-width="1" fill="gold" />
                    </svg>